<?xml version="1.0" encoding="utf-8"?>
<!-- Generator: Adobe Illustrator 27.9.0, SVG Export Plug-In . SVG Version: 6.00 Build 0)  -->
<svg version="1.1" id="Layer_1" xmlns="http://www.w3.org/2000/svg" xmlns:xlink="http://www.w3.org/1999/xlink" x="0px" y="0px"
	 viewBox="0 0 1080 1080" style="enable-background:new 0 0 1080 1080;" xml:space="preserve">
<style type="text/css">
	.st0{display:none;fill:#00031C;}
	.st1{fill:#3F66D5;}
	.st2{fill:#153672;}
	.st3{fill:#375FDD;}
	.st4{fill:url(#SVGID_1_);}
	.st5{fill:#6074D8;}
	.st6{fill:url(#SVGID_00000134955063336418554150000007394108396147033250_);}
	.st7{fill:url(#SVGID_00000068676148995210836220000017705251615985045436_);}
	.st8{fill:url(#SVGID_00000039848906194016344730000001851194475917416890_);}
</style>
<rect x="-710" y="-710" class="st0" width="2500" height="2500"/>
<g>
	<path class="st1" d="M879.97,841.5v0.58l-366.21,217.53c-17.52,10.41-39.7-2.22-39.7-22.6V919.35L879.97,841.5z"/>
	<polygon class="st2" points="879.97,840.91 879.97,841.5 474.05,919.35 474.05,840.91 	"/>
	<path class="st3" d="M1043.72,419.64v242.9c-37.93,47.53-89.45,83.81-149.33,102.68c-86.82,27.33-180.42,14.72-256.61-32.1
		c-18.68-11.44-36.31-25-52.55-40.46C509.4,615.59,429.45,528.41,317.76,508.6c-88.22-15.66-198.58,49.47-281.47,164.63V430.31
		c10.34-14.36,21.07-27.98,32.19-40.72c152.47,163.43,314.84-32.42,314.84-32.42l43.8-47.59c59.27,37.25,109.48,90.78,158.12,140.15
		c16.24,15.46,33.88,29.02,52.55,40.49c76.19,46.78,169.79,59.39,256.61,32.06C954.27,503.42,1005.79,467.14,1043.72,419.64z"/>
	<linearGradient id="SVGID_1_" gradientUnits="userSpaceOnUse" x1="-31.9935" y1="687.8552" x2="1070.7396" y2="664.0024">
		<stop  offset="0" style="stop-color:#2B3D70"/>
		<stop  offset="0.1637" style="stop-color:#2E468C"/>
		<stop  offset="0.4033" style="stop-color:#3251AF"/>
		<stop  offset="0.6295" style="stop-color:#3559C8"/>
		<stop  offset="0.8347" style="stop-color:#365DD8"/>
		<stop  offset="1" style="stop-color:#375FDD"/>
	</linearGradient>
	<path class="st4" d="M1043.72,662.55v97.74c0,44.52-36.09,80.62-80.62,80.62H110.01c-40.72,0-73.73-33.01-73.73-73.73v-93.95
		c82.9-115.15,193.26-180.29,281.48-164.63c111.7,19.8,191.63,106.97,267.46,184.03c16.24,15.48,33.88,29.04,52.58,40.49
		c76.18,46.8,169.78,59.42,256.59,32.07C954.27,746.33,1005.8,710.05,1043.72,662.55z"/>
	<path class="st5" d="M1043.72,176.71v242.93c-37.93,47.5-89.45,83.78-149.33,102.64c-86.82,27.33-180.42,14.72-256.61-32.06
		c-18.68-11.48-36.31-25.03-52.55-40.49c-48.63-49.38-98.85-102.9-158.12-140.15l120.54-130.88c1.62-1.69,3.27-3.37,4.96-5.09
		c10.99,11.12,21.85,22.27,32.62,33.2c16.24,15.46,33.88,29.05,52.55,40.49c76.19,46.78,169.79,59.39,256.61,32.06
		C954.27,260.49,1005.79,224.21,1043.72,176.71z"/>
	
		<linearGradient id="SVGID_00000123425744355576339190000000766760811459844019_" gradientUnits="userSpaceOnUse" x1="797.29" y1="18.8818" x2="798.8463" y2="277.209">
		<stop  offset="0" style="stop-color:#DD9FC7"/>
		<stop  offset="1" style="stop-color:#A98FC3"/>
	</linearGradient>
	<path style="fill:url(#SVGID_00000123425744355576339190000000766760811459844019_);" d="M1043.72,154.86v21.85
		c-37.92,47.5-89.45,83.78-149.33,102.65c-86.81,27.34-180.41,14.72-256.59-32.07c-18.7-11.45-36.34-25-52.58-40.49
		c-10.75-10.92-21.62-22.08-32.6-33.18c27.05-27.28,55.03-54.51,85.18-78.29c44.05-34.88,92.72-62.45,149.68-72.56
		c6.25-1.11,12.68-1.81,19.1-2.1h15.31C893.98,23.99,975.65,73.48,1043.72,154.86z"/>
	
		<linearGradient id="SVGID_00000083787759763048176080000006239456308219537838_" gradientUnits="userSpaceOnUse" x1="214.9426" y1="468.7496" x2="274.4668" y2="252.8285">
		<stop  offset="0" style="stop-color:#546ED4"/>
		<stop  offset="1" style="stop-color:#7E7FD1"/>
	</linearGradient>
	<path style="fill:url(#SVGID_00000083787759763048176080000006239456308219537838_);" d="M427.11,309.57l-43.8,47.59
		c0,0-162.36,195.85-314.84,32.42c44.94-51.58,95.28-89.38,144.66-109.58h0.03c36.25-14.85,71.94-20.1,104.59-14.33
		c21.62,3.86,42.05,10.24,61.53,18.58h0.03C395.99,291.39,411.81,299.91,427.11,309.57z"/>
	
		<linearGradient id="SVGID_00000003807729068119592550000000645078314067222956_" gradientUnits="userSpaceOnUse" x1="291.2142" y1="18.9584" x2="294.3266" y2="291.2913">
		<stop  offset="0" style="stop-color:#DF9DC5"/>
		<stop  offset="1" style="stop-color:#7E7FD1"/>
	</linearGradient>
	<path style="fill:url(#SVGID_00000003807729068119592550000000645078314067222956_);" d="M552.61,173.6
		c-1.69,1.72-3.34,3.4-4.96,5.09L427.11,309.57c-15.3-9.66-31.12-18.19-47.79-25.32h-0.03c-19.48-8.33-39.91-14.72-61.53-18.58
		c-32.65-5.77-68.34-0.52-104.59,14.33h-0.03c-49.38,20.2-99.72,58-144.66,109.58c-11.12,12.74-21.85,26.36-32.19,40.72V213.49
		c0-17.36,5.7-34.29,16.46-47.91c0.06-0.07,0.11-0.14,0.17-0.21C122.68,77.73,208.21,24.11,283.36,20.67h15.3
		c6.42,0.29,12.84,0.97,19.1,2.11C413.63,39.77,486.09,106.36,552.61,173.6z"/>
</g>
</svg>
