<?xml version="1.0" standalone="no"?>
<!DOCTYPE svg PUBLIC "-//W3C//DTD SVG 1.1//EN" "http://www.w3.org/Graphics/SVG/1.1/DTD/svg11.dtd" >
<svg xmlns="http://www.w3.org/2000/svg">
<metadata>Generated by IcoMoon</metadata>
<defs>
<font id="icomoon" horiz-adv-x="1024">
<font-face units-per-em="1024" ascent="960" descent="-64" />
<missing-glyph horiz-adv-x="1024" />
<glyph unicode="&#x20;" horiz-adv-x="512" d="" />
<glyph unicode="&#xe900;" glyph-name="arrow-right" d="M749.518 391.084h-692.622v113.777h692.622l-318.577 318.577 81.067 79.645 455.11-455.112-455.11-455.114-81.067 79.65 318.577 318.576z" />
<glyph unicode="&#xe902;" glyph-name="dollar" d="M815.998 288c-0.061-55.142-21.996-108.015-60.989-147.009s-91.863-60.928-147.009-60.989h-48v-48.005c0-12.725-5.057-24.938-14.059-33.935-9.002-9.004-21.21-14.063-33.941-14.063s-24.939 5.059-33.941 14.063c-9.002 8.998-14.059 21.21-14.059 33.935v48.005h-48c-55.146 0.061-108.014 21.996-147.008 60.989s-60.928 91.866-60.991 147.009c0 12.73 5.057 24.939 14.059 33.941s21.21 14.060 33.941 14.060c12.73 0 24.939-5.057 33.941-14.060s14.059-21.21 14.059-33.941c0-29.706 11.801-58.194 32.804-79.193 21.004-21.006 49.492-32.809 79.196-32.809h192c29.704 0 58.192 11.803 79.193 32.809 21.006 20.999 32.809 49.487 32.809 79.193 0 29.704-11.803 58.192-32.809 79.196-21.001 21.004-49.489 32.804-79.193 32.804h-160c-55.165 0-108.071 21.914-147.078 60.921s-60.922 91.914-60.922 147.078c0 55.165 21.914 108.071 60.922 147.078s91.914 60.921 147.078 60.921h16v48c0 12.73 5.057 24.939 14.059 33.941s21.21 14.059 33.941 14.059c12.73 0 24.939-5.057 33.941-14.059s14.059-21.211 14.059-33.941v-48h16c55.146-0.063 108.012-21.998 147.005-60.991s60.928-91.862 60.996-147.008c0-12.73-5.059-24.939-14.063-33.941-8.998-9.002-21.21-14.060-33.942-14.060-12.725 0-24.938 5.057-33.935 14.060-9.004 9.002-14.063 21.21-14.063 33.941 0 29.704-11.799 58.192-32.802 79.196s-49.492 32.804-79.196 32.804h-128c-29.704 0-58.192-11.801-79.196-32.804s-32.803-49.492-32.803-79.196c0-29.704 11.8-58.192 32.803-79.196s49.492-32.804 79.196-32.804h160c55.146-0.063 108.015-21.998 147.009-60.991s60.928-91.862 60.989-147.008z" />
<glyph unicode="&#xe903;" glyph-name="excel" d="M865.963 641.92l-224.003 223.999c-4.458 4.463-9.751 8.004-15.578 10.42s-12.074 3.66-18.381 3.66h-384c-21.217 0-41.566-8.428-56.568-23.431s-23.431-35.351-23.431-56.568v-703.997c0-21.224 8.428-41.568 23.431-56.573s35.351-23.429 56.568-23.429h576.003c21.217 0 41.561 8.424 56.566 23.429s23.429 35.348 23.429 56.573v511.997c0 12.72-5.052 24.92-14.036 33.92zM640 732l92.003-92h-92.003v92zM240 111.998v672.002h304v-192c0-12.731 5.057-24.94 14.059-33.942s21.21-14.059 33.942-14.059h192.001v-432.002h-544.002z" />
<glyph unicode="&#xe904;" glyph-name="face" d="M508.721 832.879c-215.796 0-390.545-175.14-390.545-390.935s174.749-390.936 390.545-390.936c216.187 0 391.327 175.14 391.327 390.936s-175.14 390.935-391.327 390.935zM509.112 129.193c-172.793 0-312.748 139.957-312.748 312.751s139.955 312.748 312.748 312.748c172.794 0 312.751-139.955 312.751-312.748s-139.957-312.751-312.751-312.751zM645.939 481.037c32.449 0 58.639 26.193 58.639 58.64s-26.19 58.64-58.639 58.64c-32.449 0-58.64-26.193-58.64-58.64s26.192-58.64 58.64-58.64zM372.285 481.037c32.448 0 58.64 26.193 58.64 58.64s-26.193 58.64-58.64 58.64c-32.448 0-58.641-26.193-58.641-58.64s26.193-58.64 58.641-58.64zM509.112 226.93c79.36 0 148.555 43.394 185.696 107.508 7.427 12.896-1.958 29.318-17.203 29.318h-336.986c-14.855 0-24.628-16.421-17.201-29.318 37.139-64.114 106.335-107.508 185.694-107.508z" />
<glyph unicode="&#xe905;" glyph-name="facebook" d="M591.334-64v467.059h156.71l23.509 182.077h-180.22v116.229c0 52.698 14.575 88.612 90.231 88.612l96.333 0.040v162.855c-16.661 2.165-73.847 7.129-140.407 7.129-138.987 0-234.139-84.837-234.139-240.602v-134.262h-157.185v-182.077h157.185v-467.059h187.983z" />
<glyph unicode="&#xe906;" glyph-name="flare" d="M571.387 887.583c-21.254 53.89-97.521 53.89-118.774 0l-107.536-272.66-272.66-107.536c-53.89-21.253-53.89-97.52 0-118.774l272.66-107.538 107.536-272.659c21.253-53.888 97.52-53.888 118.774 0l107.538 272.659 272.659 107.538c53.888 21.254 53.888 97.521 0 118.774l-272.659 107.536-107.538 272.66z" />
<glyph unicode="&#xe907;" glyph-name="headphone" horiz-adv-x="960" d="M767.738 708.324c-56.57 56.93-128.767 95.782-207.442 111.631s-160.285 7.982-234.484-22.604c-74.198-30.586-137.645-82.515-182.297-149.203s-68.497-145.131-68.515-225.387v-210.001c0-27.846 11.062-54.554 30.753-74.246s46.399-30.752 74.246-30.752h60c27.848 0 54.555 11.059 74.246 30.752s30.753 46.4 30.753 74.246v150.001c0 27.848-11.062 54.555-30.753 74.246s-46.399 30.753-74.246 30.753h-71.85c10.86 74.968 48.356 143.516 105.624 193.098s130.477 76.883 206.227 76.902h2.4c75.412-0.323 148.188-27.786 205.011-77.366 56.826-49.58 93.901-117.962 104.442-192.634h-71.853c-27.846 0-54.554-11.062-74.246-30.753s-30.753-46.399-30.753-74.246v-150.001c0-27.846 11.062-54.554 30.753-74.246 19.693-19.693 46.4-30.752 74.246-30.752h73.498c-3.456-16.941-12.659-32.166-26.054-43.098-13.395-10.938-30.15-16.909-47.443-16.902h-210c-11.935 0-23.38-4.742-31.82-13.184-8.44-8.435-13.181-19.885-13.181-31.814 0-11.936 4.741-23.386 13.181-31.821 8.439-8.442 19.885-13.184 31.82-13.184h210c43.744 0.051 85.683 17.453 116.621 48.384 30.931 30.931 48.326 72.87 48.378 116.621v299.997c0.205 52.973-10.042 105.466-30.17 154.469-20.122 49.003-49.715 93.552-87.091 131.093zM240 377.762c3.978 0 7.793-1.58 10.607-4.393s4.394-6.628 4.394-10.607v-150.001c0-3.981-1.581-7.795-4.394-10.605-2.813-2.816-6.628-4.397-10.607-4.397h-60c-3.978 0-7.793 1.581-10.607 4.397-2.813 2.81-4.394 6.624-4.394 10.605v165h75zM704.998 212.762v150.001c0 3.978 1.581 7.793 4.397 10.607 2.81 2.813 6.624 4.393 10.605 4.393h75.002v-180.002h-75.002c-3.981 0-7.795 1.581-10.605 4.397-2.816 2.81-4.397 6.624-4.397 10.605z" />
<glyph unicode="&#xe908;" glyph-name="ins" d="M921.574 38.37v300.032c0 147.456-31.744 260.098-203.776 260.098-82.944 0-138.24-45.056-160.768-88.066h-2.048v74.754h-162.816v-546.818h169.984v271.36c0 71.68 13.312 140.288 101.376 140.288 87.040 0 88.064-80.896 88.064-144.384v-266.24h169.984v-1.024zM115.667 585.208h169.984v-546.817h-169.984v546.817zM200.637 857.583c-54.272 0-98.304-44.032-98.304-98.304s44.032-99.328 98.304-99.328c54.272 0 98.304 45.056 98.304 99.328s-44.032 98.304-98.304 98.304z" />
<glyph unicode="&#xe90a;" glyph-name="mark" d="M1002.422 61.026c13.74-13.735 21.457-32.363 21.457-51.791 0-19.419-7.717-38.046-21.457-51.786-13.731-13.731-32.358-21.448-51.786-21.448s-38.055 7.717-51.79 21.448l-386.845 386.946-386.967-386.825c-13.736-13.731-32.365-21.448-51.79-21.448s-38.055 7.717-51.791 21.448c-13.736 13.74-21.452 32.368-21.452 51.796 0 19.419 7.717 38.048 21.452 51.783l386.966 386.822-386.844 386.944c-13.736 13.736-21.452 32.364-21.452 51.788s7.717 38.053 21.452 51.787c13.736 13.735 32.365 21.451 51.791 21.451s38.055-7.716 51.79-21.451l386.845-386.944 386.967 387.005c13.736 13.735 32.361 21.451 51.789 21.451s38.056-7.716 51.796-21.451c13.731-13.735 21.448-32.363 21.448-51.787s-7.717-38.053-21.448-51.787l-386.971-387.005 386.84-386.944z" />
<glyph unicode="&#xe90b;" glyph-name="more-user" d="M188.697 693.758c0 94.257 76.41 170.667 170.668 170.667 94.255 0 170.667-76.41 170.667-170.667 0-94.255-76.412-170.667-170.667-170.667-94.258 0-170.668 76.412-170.668 170.667zM592.092 600.666c0 77.12 62.517 139.637 139.636 139.637 77.117 0 139.636-62.517 139.636-139.637s-62.52-139.636-139.636-139.636c-77.12 0-139.636 62.517-139.636 139.636zM64.576 166.242c0 162.807 131.981 294.788 294.789 294.788s294.788-131.981 294.788-294.788v-0.106c-0.003-1.648-0.016-3.302-0.043-4.94-0.18-10.693-5.855-20.542-15.022-26.059-81.721-49.205-177.465-77.501-279.723-77.501-102.259 0-198.004 28.297-279.727 77.501-9.164 5.517-14.84 15.366-15.020 26.059-0.028 1.679-0.043 3.361-0.043 5.046zM716.204 166.111c0-1.986-0.016-3.981-0.050-5.958-0.236-14.010-3.615-27.536-9.638-39.709 8.341-0.496 16.744-0.748 25.203-0.748 66.023 0 128.559 15.295 184.18 42.564 10.218 5.008 16.877 15.211 17.346 26.584 0.115 2.796 0.174 5.607 0.174 8.428 0 111.396-90.304 201.697-201.7 201.697-30.881 0-60.143-6.941-86.311-19.347 44.466-59.516 70.796-133.371 70.796-213.38v-0.13z" />
<glyph unicode="&#xe90c;" glyph-name="node" horiz-adv-x="960" d="M660.051 317.741c-40.184 0.064-78.998-14.611-109.087-41.254l-153.037 98.253c9.499 31.295 9.499 64.705 0 96l153.037 98.25c29.788-26.179 68.036-40.705 107.692-40.9s78.048 13.954 108.090 39.838c30.048 25.884 49.715 61.758 55.392 101.007s-3.034 79.226-24.518 112.558c-21.485 33.333-54.298 57.775-92.384 68.819s-78.883 7.944-114.865-8.728c-35.982-16.671-64.724-45.789-80.925-81.986s-18.769-77.030-7.231-114.97l-153.075-98.138c-23.805 21.037-53.176 34.755-84.588 39.507s-63.526 0.333-92.487-12.722c-28.962-13.056-53.539-34.195-70.779-60.878s-26.412-57.776-26.412-89.544c0-31.768 9.171-62.861 26.412-89.544s41.817-47.823 70.779-60.879c28.961-13.056 61.076-17.472 92.487-12.723 31.411 4.755 60.783 18.47 84.588 39.507l153.037-98.47c-10.098-33.21-9.465-68.762 1.807-101.587 11.273-32.832 32.611-61.267 60.98-81.267s62.322-30.547 97.032-30.138c34.707 0.41 68.397 11.757 96.288 32.422 27.885 20.672 48.544 49.606 59.040 82.688 10.49 33.088 10.278 68.64-0.602 101.6-10.88 32.966-31.878 61.651-60.006 81.99s-61.952 31.283-96.666 31.29zM660.051 767.74c14.835 0 29.338-4.399 41.67-12.64s21.946-19.955 27.622-33.659c5.677-13.704 7.162-28.785 4.269-43.333s-10.042-27.912-20.525-38.401c-10.49-10.489-23.853-17.632-38.406-20.525-14.547-2.894-29.626-1.409-43.331 4.268s-25.418 15.29-33.659 27.623c-8.241 12.334-12.64 26.835-12.64 41.668 0 19.891 7.901 38.968 21.967 53.033s33.141 21.967 53.032 21.967zM240.052 347.74c-14.834 0-29.334 4.399-41.668 12.639s-21.947 19.955-27.624 33.66c-5.676 13.704-7.162 28.784-4.268 43.333s10.036 27.912 20.525 38.401c10.489 10.489 23.853 17.632 38.401 20.526s29.629 1.409 43.333-4.268c13.704-5.677 25.418-15.29 33.659-27.624s12.64-26.834 12.64-41.668c0-19.891-7.901-38.968-21.967-53.033s-33.142-21.967-53.033-21.967zM660.051 77.741c-14.835 0-29.333 4.397-41.667 12.64-12.334 8.237-21.947 19.955-27.624 33.658s-7.162 28.787-4.268 43.334c2.893 14.547 10.036 27.91 20.525 38.4s23.853 17.632 38.402 20.525c14.547 2.893 29.626 1.408 43.334-4.269 13.702-5.677 25.414-15.29 33.658-27.622s12.64-26.835 12.64-41.664c0-19.891-7.904-38.97-21.965-53.037-14.067-14.067-33.146-21.965-53.037-21.965z" />
<glyph unicode="&#xe90d;" glyph-name="quote" d="M1022.366 588.832c0-80.843-19.273-155.911-57.813-225.206-40.572-71.219-92.297-133.777-155.179-187.669-62.886-53.897-128.811-96.243-197.781-127.040l-76.066 89.506c52.74 42.342 99.396 89.502 139.964 141.474 38.545 51.968 57.813 102.016 57.813 150.135 0 30.798-7.1 51.009-21.299 60.633-16.226 7.7-34.483 18.286-54.767 31.76-22.315 15.399-42.598 36.572-60.855 63.52s-27.388 59.67-27.388 98.167c0 57.745 19.273 103.941 57.813 138.588s88.239 51.971 149.094 51.971c73.028 0 132.868-25.023 179.524-75.069 44.625-51.97 66.94-122.227 66.94-210.769zM486.844 588.832c0-80.843-19.273-155.911-57.813-225.206-40.57-71.219-92.297-133.777-155.18-187.669-62.883-53.897-128.809-96.243-197.778-127.040l-76.069 89.506c52.741 42.342 99.396 89.502 139.966 141.474 38.541 51.968 57.812 102.016 57.812 150.135 0 30.798-7.1 51.009-21.299 60.633-16.228 7.7-34.484 18.286-54.769 31.76-22.313 15.399-42.598 36.572-60.855 63.52s-27.385 59.67-27.385 98.167c0 57.745 19.271 103.941 57.812 138.588s88.239 51.971 149.094 51.971c73.026 0 132.867-25.023 179.522-75.069 44.628-51.97 66.942-122.227 66.942-210.769z" />
<glyph unicode="&#xe90e;" glyph-name="rail-star" d="M366.667 926.080c-47.799-275.22-86.548-316.292-346.187-366.959 259.641-50.668 298.388-91.739 346.187-366.961 47.799 275.223 86.547 316.293 346.189 366.961-259.641 50.667-298.39 91.739-346.189 366.959zM742.4 409.784c-30.396-175.030-55.042-201.155-220.16-233.374 165.118-32.219 189.764-58.343 220.16-233.37 30.396 175.026 55.042 201.15 220.16 233.37-165.122 32.219-189.759 58.343-220.16 233.374z" />
<glyph unicode="&#xe90f;" glyph-name="reply" d="M910.221 32v237.715c0 49.524-16.589 91.619-49.779 126.285-33.184 34.667-73.478 52-120.883 52h-521.958l204.8-213.943-81.067-83.203-341.333 356.574 341.333 356.572 81.067-83.2-204.8-213.943h521.958c78.694 0 145.773-28.972 201.242-86.914s83.2-128.019 83.2-210.228v-237.715h-113.779z" />
<glyph unicode="&#xe910;" glyph-name="rocket" d="M900.89 804.142c-0.321 1.53-1.076 2.94-2.178 4.062s-2.505 1.91-4.045 2.272c-102.658 24.784-339.856-63.534-468.367-190.378-22.921-22.449-43.816-46.829-62.449-72.862-39.63 3.461-79.259 0.571-113.035-13.966-95.296-41.416-123.042-149.481-130.772-195.969-0.438-2.544-0.273-5.154 0.484-7.624 0.755-2.471 2.082-4.734 3.874-6.614 1.793-1.878 4.002-3.321 6.455-4.213 2.452-0.893 5.081-1.212 7.679-0.932l153.032 16.666c0.109-11.393 0.806-22.771 2.086-34.095 0.77-7.863 4.305-15.211 9.991-20.768l59.26-58.377c5.633-5.607 13.072-9.097 21.033-9.865 11.403-1.26 22.863-1.948 34.336-2.061l-16.791-150.917c-0.28-2.565 0.046-5.159 0.951-7.579s2.367-4.6 4.268-6.368c1.902-1.769 4.193-3.079 6.694-3.827 2.5-0.748 5.142-0.914 7.719-0.485 46.99 7.442 156.624 34.84 198.321 128.938 14.723 33.351 17.738 72.292 14.338 111.233 26.428 18.4 51.183 39.039 73.983 61.682 128.914 126.653 217.848 355.642 193.134 462.046zM579.139 493.186c-11.771 11.617-19.789 26.418-23.040 42.535s-1.587 32.823 4.779 48.005c6.366 15.184 17.149 28.161 30.985 37.292s30.106 14.004 46.747 14.004c16.642 0 32.91-4.873 46.747-14.004s24.62-22.108 30.986-37.292c6.366-15.183 8.029-31.888 4.779-48.005s-11.27-30.918-23.041-42.535c-7.805-7.719-17.076-13.842-27.28-18.020s-21.142-6.328-32.19-6.328c-11.047 0-21.985 2.15-32.19 6.328-10.204 4.178-19.474 10.301-27.28 18.020zM358.89 179.061c-9.605-9.502-25.011-13.205-43.555-16.371-41.662-7.010-78.452 28.539-70.968 70.128 2.857 15.766 11.305 37.868 16.563 43.059 1.149 1.113 1.915 2.555 2.187 4.122s0.038 3.178-0.671 4.606c-0.708 1.427-1.853 2.598-3.275 3.346-1.42 0.748-3.044 1.034-4.639 0.82-23.297-2.815-44.973-13.245-61.573-29.63-41.207-40.723-45.098-191.832-45.098-191.832s153.119 3.842 194.326 44.566c16.646 16.379 27.221 37.814 30.025 60.852 0.649 7.234-8.273 11.544-13.321 6.334z" />
<glyph unicode="&#xe911;" glyph-name="search" d="M900.486 140.291l-183.197 183.197c44.106 58.716 67.916 130.186 67.835 203.622 0 187.578-152.609 340.186-340.187 340.186s-340.187-152.609-340.187-340.186c0-187.579 152.609-340.188 340.187-340.188 73.436-0.079 144.906 23.73 203.621 67.835l183.197-183.196c9.274-8.291 21.368-12.716 33.802-12.367s24.262 5.443 33.057 14.239c8.795 8.795 13.891 20.623 14.237 33.057 0.348 12.433-4.077 24.529-12.366 33.801zM201.947 527.11c0 48.059 14.25 95.039 40.951 134.998 26.7 39.96 64.65 71.104 109.051 89.496 44.401 18.391 93.258 23.203 140.393 13.827s90.433-32.518 124.416-66.501 57.125-77.28 66.501-124.415c9.376-47.136 4.563-95.994-13.828-140.394s-49.536-82.35-89.495-109.051c-39.96-26.7-86.94-40.951-134.999-40.951-64.421 0.077-126.182 25.702-171.735 71.256s-71.178 107.313-71.255 171.735z" />
<glyph unicode="&#xe912;" glyph-name="setting" d="M513.348 570.316c-24.645 0-48.737-7.308-69.23-21s-36.463-33.155-45.894-55.924c-9.432-22.769-11.899-47.825-7.091-71.996 4.808-24.173 16.676-46.376 34.103-63.803s39.63-29.295 63.803-34.103c24.172-4.809 49.228-2.341 71.996 7.091 22.77 9.431 42.231 25.403 55.924 45.894 13.692 20.493 21 44.585 21 69.23-0.099 33.019-13.258 64.657-36.605 88.004s-54.986 36.508-88.005 36.607zM782.382 445.705c-0.064-11.643-0.918-23.269-2.554-34.797l75.841-59.378c3.302-2.726 5.528-6.54 6.278-10.757s-0.023-8.564-2.182-12.264l-71.744-123.863c-2.181-3.667-5.586-6.447-9.614-7.852s-8.424-1.344-12.411 0.172l-89.175 35.826c-18.569-14.299-38.889-26.166-60.467-35.311l-13.334-94.673c-0.746-4.241-2.941-8.091-6.212-10.893s-7.411-4.379-11.716-4.466h-143.489c-4.227 0.082-8.301 1.595-11.557 4.291s-5.501 6.417-6.372 10.554l-13.332 94.673c-21.638 9.041-41.972 20.927-60.467 35.343l-89.175-35.826c-3.986-1.517-8.38-1.581-12.408-0.179s-7.433 4.179-9.617 7.843l-71.744 123.848c-2.161 3.699-2.934 8.046-2.184 12.264 0.751 4.218 2.976 8.031 6.28 10.758l75.841 59.377c-1.618 11.703-2.47 23.498-2.555 35.311 0.065 11.644 0.919 23.269 2.555 34.798l-75.841 59.377c-3.304 2.728-5.528 6.541-6.28 10.758-0.75 4.218 0.023 8.564 2.184 12.264l71.744 123.863c2.181 3.667 5.585 6.447 9.614 7.852 4.028 1.404 8.422 1.343 12.411-0.173l89.175-35.826c18.569 14.299 38.889 26.166 60.467 35.313l13.332 94.673c0.746 4.241 2.943 8.091 6.213 10.892 3.269 2.802 7.411 4.38 11.716 4.466h143.489c4.227-0.082 8.301-1.595 11.557-4.291s5.501-6.415 6.371-10.554l13.334-94.673c21.665-9.033 42.026-20.919 60.545-35.342l89.097 35.825c3.986 1.518 8.379 1.581 12.407 0.179s7.434-4.178 9.618-7.843l71.744-123.863c2.159-3.699 2.934-8.046 2.182-12.264-0.75-4.218-2.976-8.031-6.278-10.757l-75.841-59.378c1.617-11.697 2.47-23.487 2.554-35.296z" />
<glyph unicode="&#xe913;" glyph-name="stack" d="M498.964 461.033h206.87l206.867 206.868v206.869h-206.867l-206.87-206.869v-206.868zM498.964 47.293h206.87l206.867 206.87v206.87h-206.867l-206.87-206.87v-206.87zM85.227 47.293h206.869l206.868 206.87v206.87h-206.868l-206.869-206.87v-206.87zM85.227 461.033h206.869l206.868 206.868v206.869h-206.868l-206.869-206.869v-206.868z" />
<glyph unicode="&#xe914;" glyph-name="star" d="M970.752 558.5l-325.504 34.375-133.248 298.875-133.25-298.875-325.5-34.375 243.125-219.126-67.875-320.123 283.5 163.497 283.5-163.497-67.876 320.123 243.128 219.126z" />
<glyph unicode="&#xe915;" glyph-name="thunder" d="M592.072 956.15v-397.897h343.501l-515.256-596.848v397.901h-343.505l515.26 596.844z" />
<glyph unicode="&#xe916;" glyph-name="user" d="M635.373 713.103c-30.312 32.726-72.649 50.748-119.378 50.748-46.977 0-89.454-17.912-119.626-50.436-30.499-32.882-45.358-77.571-41.869-125.825 6.916-95.203 79.361-172.649 161.495-172.649s154.455 77.43 161.48 172.617c3.537 47.82-11.416 92.415-42.102 125.545zM790.14 66.067h-548.287c-7.177-0.093-14.284 1.414-20.805 4.413-6.52 2.999-12.291 7.414-16.89 12.923-10.125 12.104-14.205 28.63-11.185 45.343 13.147 72.928 54.175 134.19 118.661 177.197 57.29 38.177 129.86 59.19 204.361 59.19s147.072-21.028 204.362-59.19c64.485-42.991 105.513-104.252 118.66-177.181 3.022-16.713-1.059-33.239-11.183-45.343-4.599-5.512-10.368-9.93-16.888-12.932-6.522-3.002-13.629-4.511-20.806-4.42z" />
<glyph unicode="&#xe917;" glyph-name="user-circle" horiz-adv-x="960" d="M827.59 527.104c-5.837-0.977-11.418-3.094-16.429-6.23-5.018-3.136-9.363-7.229-12.794-12.045s-5.875-10.262-7.2-16.025c-1.325-5.763-1.504-11.731-0.518-17.562 2.899-17.35 4.352-34.91 4.352-52.5 0.109-70.679-23.68-139.317-67.501-194.773-29.165 37.094-66.342 67.117-108.751 87.821 27.023 27.37 45.352 62.12 52.68 99.878s3.322 76.841-11.507 112.33c-14.835 35.489-39.828 65.799-71.842 87.117s-69.619 32.693-108.081 32.693c-38.463 0-76.067-11.375-108.081-32.693s-57.009-51.629-71.84-87.117c-14.831-35.489-18.835-74.571-11.509-112.33s25.654-72.508 52.68-99.878c-42.406-20.704-79.583-50.726-108.75-87.821-36.643 46.432-59.46 102.248-65.839 161.052s3.94 118.216 29.773 171.426c25.834 53.21 66.137 98.063 116.29 129.421s108.127 47.949 167.276 47.875c17.59 0.001 35.15-1.454 52.5-4.35 11.771-1.989 23.85 0.779 33.579 7.695s16.314 17.415 18.303 29.186c1.989 11.77-0.78 23.849-7.696 33.579s-17.415 16.313-29.185 18.302c-58.071 9.75-117.569 6.733-174.356-8.843s-109.498-43.337-154.467-81.35c-44.97-38.013-81.118-85.368-105.931-138.769s-37.693-111.567-37.746-170.451c0-107.413 42.669-210.428 118.621-286.376 75.952-75.955 178.966-118.624 286.378-118.624s210.426 42.669 286.381 118.624c75.949 75.949 118.618 178.963 118.618 286.376 0.006 22.616-1.862 45.193-5.587 67.5-1.99 11.757-8.57 22.243-18.285 29.155s-21.779 9.684-33.536 7.708zM375 452.741c0 20.767 6.158 41.068 17.695 58.335s27.937 30.725 47.123 38.672c19.187 7.948 40.298 10.027 60.666 5.975s39.077-14.051 53.762-28.736c14.684-14.685 24.685-33.394 28.736-53.762s1.972-41.48-5.975-60.666c-7.948-19.186-21.405-35.585-38.673-47.123s-37.568-17.695-58.335-17.695c-27.848 0-54.555 11.062-74.246 30.754s-30.753 46.398-30.753 74.246zM298.387 165.606c20.891 28.563 48.224 51.795 79.78 67.814 31.556 16.013 66.445 24.358 101.833 24.358s70.276-8.346 101.833-24.358c31.556-16.019 58.89-39.251 79.78-67.814-53.078-37.645-116.542-57.862-181.613-57.862s-128.534 20.218-181.613 57.862zM901.837 720.904l-120-120c-4.179-4.195-9.146-7.524-14.618-9.795s-11.334-3.44-17.254-3.44c-5.926 0-11.789 1.169-17.261 3.44-5.466 2.271-10.438 5.6-14.618 9.795l-60 60c-8.454 8.454-13.203 19.92-13.203 31.875s4.749 23.421 13.203 31.875c8.454 8.454 19.923 13.203 31.878 13.203s23.418-4.749 31.872-13.203l28.166-28.163 88.16 88.2c8.454 8.454 19.917 13.203 31.872 13.203s23.424-4.749 31.878-13.203c8.454-8.454 13.203-19.919 13.203-31.875s-4.749-23.421-13.203-31.875l-0.077-0.038z" />
<glyph unicode="&#xe918;" glyph-name="user-plus" d="M1024.007 416.001c0-12.73-5.052-24.939-14.056-33.941s-21.21-14.059-33.942-14.059h-31.997v-32c0-12.73-5.059-24.94-14.063-33.942-8.998-9.002-21.21-14.059-33.942-14.059-12.725 0-24.938 5.057-33.935 14.059-9.004 9.002-14.063 21.211-14.063 33.942v32h-31.997c-12.732 0-24.945 5.057-33.942 14.059-9.004 9.002-14.063 21.21-14.063 33.941s5.059 24.939 14.063 33.942c8.998 9.002 21.21 14.059 33.942 14.059h31.997v32c0 12.73 5.059 24.939 14.063 33.941 8.998 9.002 21.21 14.059 33.935 14.059 12.732 0 24.945-5.057 33.942-14.059 9.004-9.002 14.063-21.21 14.063-33.941v-32h31.997c12.732 0 24.938-5.057 33.942-14.059s14.056-21.211 14.056-33.942zM804.768 190.88c8.192-9.748 12.172-22.351 11.073-35.034-1.106-12.691-7.202-24.412-16.951-32.604s-22.357-12.172-35.041-11.073c-12.684 1.106-24.412 7.202-32.597 16.951-54.763 65.201-151.243 142.882-299.243 142.882-115.56 0-221.84-50.722-299.24-142.882-8.19-9.748-19.917-15.845-32.602-16.951-12.685-1.099-25.289 2.881-35.038 11.073s-15.846 19.913-16.949 32.604c-1.103 12.684 2.879 25.286 11.069 35.034 52.149 62.983 119.052 112.105 194.76 143-47.079 37.014-81.448 87.782-98.326 145.241s-15.424 118.75 4.159 175.344c19.583 56.594 56.321 105.675 105.102 140.415s107.178 53.408 167.064 53.408c59.886 0 118.283-18.669 167.064-53.408s85.518-83.821 105.104-140.415c19.579-56.594 21.033-117.885 4.157-175.344s-51.247-108.227-98.326-145.241c75.716-30.884 142.617-80.011 194.759-143zM432.009 368.001c37.974 0 75.095 11.261 106.669 32.358s56.183 51.083 70.715 86.167c14.532 35.084 18.334 73.688 10.926 110.933s-25.695 71.455-52.546 98.307c-26.852 26.852-61.063 45.138-98.307 52.547s-75.849 3.606-110.933-10.926c-35.083-14.532-65.070-39.141-86.167-70.715s-32.358-68.695-32.358-106.669c0.053-50.906 20.298-99.711 56.294-135.707s84.801-56.241 135.706-56.293z" />
<glyph unicode="&#xe919;" glyph-name="wallet" d="M228.235 730.754h575.126c6.718 0.003 13.429-0.424 20.093-1.276-2.259 15.855-7.705 31.090-16.011 44.784s-19.298 25.565-32.316 34.896c-13.017 9.331-27.79 15.929-43.425 19.397s-31.813 3.732-47.555 0.779l-473.526-80.751c-29.69-5.678-56.092-22.475-73.814-46.963 26.7 18.991 58.662 29.176 91.427 29.134zM803.363 687.539h-575.126c-30.496-0.034-59.735-12.163-81.299-33.727s-33.694-50.801-33.727-81.299v-345.075c0.033-30.496 12.162-59.738 33.727-81.297 21.564-21.567 50.802-33.697 81.299-33.729h575.126c30.496 0.032 59.735 12.162 81.295 33.729 21.567 21.559 33.697 50.801 33.729 81.297v345.075c-0.032 30.497-12.162 59.735-33.729 81.299-21.559 21.565-50.798 33.694-81.295 33.727zM717.993 342.463c-11.375 0-22.494 3.373-31.952 9.693s-16.83 15.302-21.183 25.811c-4.354 10.509-5.492 22.073-3.273 33.23s7.697 21.404 15.74 29.447c8.043 8.043 18.291 13.521 29.448 15.74s22.72 1.081 33.229-3.272c10.509-4.354 19.491-11.725 25.811-21.183s9.693-20.578 9.693-31.953c0-15.253-6.060-29.882-16.845-40.667s-25.415-16.846-40.668-16.846zM114.115 451.29v178.828c0 38.947 21.567 104.242 96.424 118.386 63.533 11.916 126.438 11.916 126.438 11.916s41.337-28.756 7.188-28.756c-34.148 0-33.249-44.034 0-44.034s0-42.235 0-42.235l-133.897-151.869-96.154-42.236z" />
<glyph unicode="&#xe91a;" glyph-name="fan" d="M498.946 109.354l227.555-124.121 227.555 124.121v289.618l-227.555-144.809-227.555 144.809v-289.618zM43.833 398.972l227.555 124.121 227.557-124.121-227.557-144.809v-268.93l-227.555 124.121v289.618zM726.5 523.093l-227.555-124.121v268.928l-227.557 144.808 227.557 124.121 227.555-124.121v-289.615z" />
<glyph unicode="&#xe91b;" glyph-name="arow-top" d="M161.056 579.289h26.256c30.3 0 65.977 17.056 104.66 48.316 38.024 30.728 75.463 72.331 108.786 114.895 33.203 42.412 61.681 84.952 81.892 116.963 10.090 15.981 18.082 29.28 23.534 38.552 2.158 3.67 3.917 6.707 5.249 9.027 1.894 12.64 12.798 22.333 25.965 22.333 13.856 0 25.206-10.734 26.188-24.34 1.003-2.353 2.409-5.598 4.207-9.621 4.090-9.157 10.193-22.324 18.165-38.162 15.978-31.74 39.298-73.88 68.763-115.852 29.562-42.107 64.674-83.131 103.984-113.419 39.276-30.259 81.254-48.694 125.258-48.694h26.26v-52.513h-26.26c-59.255 0-112.236 24.886-157.303 59.608-45.032 34.693-83.653 80.311-114.917 124.846-18.443 26.271-34.547 52.483-48.088 76.382v-820.968h-52.513v840.082c-18.924-28.811-42.473-62.665-69.035-96.594-34.506-44.076-74.742-89.115-117.129-123.368-41.727-33.721-89.195-59.985-137.665-59.985h-26.256v52.513z" />
<glyph unicode="&#xe91c;" glyph-name="arrow-down" d="M865.958 542.039l-320-320c-4.458-4.475-9.758-8.025-15.592-10.448s-12.089-3.67-18.407-3.67c-6.317 0-12.573 1.247-18.407 3.67s-11.133 5.973-15.592 10.448l-320 320c-9.017 9.017-14.083 21.248-14.083 34s5.066 24.983 14.083 34 21.248 14.084 34 14.084c12.753 0 24.983-5.067 34-14.084l286.040-286.040 286.040 286.080c9.017 9.018 21.248 14.084 34 14.084 12.753 0 24.983-5.066 34-14.084 9.017-9.017 14.084-21.247 14.084-34 0-12.752-5.067-24.983-14.084-34l-0.080-0.040z" />
<glyph unicode="&#xe91d;" glyph-name="arrow-line" d="M975.988 736v-256c0-12.73-5.059-24.939-14.056-33.941-9.004-9.002-21.21-14.060-33.942-14.060s-24.938 5.057-33.942 14.060c-8.998 9.002-14.056 21.21-14.056 33.941v140l-302.042-302.080c-4.459-4.475-9.758-8.025-15.592-10.448s-12.090-3.669-18.407-3.669c-6.317 0-12.573 1.247-18.407 3.669s-11.134 5.973-15.593 10.448l-125.96 126.080-254.040-253.96c-9.017-9.018-21.247-14.083-34-14.083s-24.983 5.065-34 14.083c-9.017 9.018-14.083 21.245-14.083 33.997s5.066 24.986 14.083 34.004l288 287.999c4.459 4.475 9.758 8.025 15.593 10.448s12.090 3.67 18.407 3.67c6.317 0 12.573-1.247 18.407-3.67s11.134-5.973 15.593-10.448l126.040-126.040 268.001 268h-140.001c-12.73 0-24.939 5.057-33.941 14.060s-14.059 21.21-14.059 33.941c0 12.73 5.057 24.939 14.059 33.941s21.21 14.059 33.941 14.059h256c12.732 0.001 24.938-5.057 33.942-14.059 8.998-9.002 14.056-21.21 14.056-33.941z" />
<glyph unicode="&#xe91e;" glyph-name="arrow-top-right" d="M256 704v-85.333h366.507l-409.173-409.173 60.16-60.16 409.173 409.173v-366.507h85.333v512h-512z" />
<glyph unicode="&#xe91f;" glyph-name="basketball" d="M955.354 705.004c-45.79 78.44-107.895 140.545-186.334 186.329-78.455 45.781-164.105 68.667-257.003 68.667-92.892 0-178.563-22.886-257.005-68.667-78.447-45.777-140.552-107.882-186.338-186.329-45.788-78.451-68.674-164.122-68.674-257.008s22.893-178.543 68.667-256.998c45.783-78.443 107.889-140.548 186.336-186.334 78.451-45.781 164.115-68.668 257.006-68.668 92.885 0 178.56 22.886 257.007 68.668 78.443 45.773 140.544 107.891 186.325 186.334 45.777 78.447 68.659 164.117 68.659 256.998 0.004 92.896-22.882 178.569-68.646 257.008zM512.009 885.332c110.217 0 206.443-36.443 288.666-109.328l-8.337-11.659c-3.332-4.675-11.665-13.665-24.994-27.005-13.329-13.329-27.887-26.003-43.661-38.001-15.791-12.002-37.222-25.667-64.346-41.001-27.11-15.334-56-28.786-86.669-40.34-51.106 94.231-105.771 179.121-163.994 254.671 35.116 8.444 69.56 12.663 103.335 12.663zM169.348 719.348c42.664 53.767 94.656 95.107 155.996 123.992 55.11-73.333 109.327-157.339 162.664-252.003-135.11-35.556-269.774-53.335-403.997-53.328 14.23 67.107 42.673 127.56 85.337 181.339zM104.004 290.317c-19.558 50.001-29.335 102.562-29.335 157.679 0 6.229 0.229 10.897 0.668 14.003 160.898 0 310.458 20.659 448.679 62.003 14.225-27.554 26.005-52.22 35.337-74.005-1.801-0.887-4.668-1.882-8.67-2.995-4.015-1.114-6.895-1.882-8.687-2.334l-24.661-8.666c-16.896-6.225-39.014-16.892-66.338-31.996-27.328-15.13-56.328-33.118-86.996-54.012-30.669-20.898-62.337-48.563-95-83.017-32.667-34.445-60.111-71.433-82.334-110.989-35.556 39.556-63.107 84.343-82.661 134.327zM512.009 10.658c-104.003 0-196.892 33.335-278.673 99.998l10.001-7.339c15.554 34.236 38.44 67.127 68.669 98.675 30.225 31.548 59.334 57.007 87.334 76.343 28 19.319 58.443 37.542 91.335 54.673 32.887 17.101 55.322 28.002 67.332 32.653 12.002 4.663 21.559 8.341 28.672 11.012l1.323 0.67h1.344c43.541-114.223 74.667-224.896 93.329-332.011-55.113-23.121-111.991-34.671-170.667-34.675zM880.030 211.661c-32.892-50.893-74.014-93.013-123.332-126.336-18.236 102.221-46.665 206.455-85.342 312.67 88.444 13.794 179.332 7.339 272.666-19.319-9.779-60.446-31.117-116.13-63.991-167.014zM942.677 453.995c-4.442 0.883-10.005 1.894-16.67 2.999-6.665 1.101-14.78 2.445-24.337 3.998-9.545 1.557-20.228 2.995-31.996 4.331-11.78 1.335-24.337 2.551-37.679 3.665-13.329 1.118-27.554 1.997-42.658 2.671-15.13 0.661-30.455 0.998-46.012 0.998-15.543 0-31.889-0.452-48.994-1.335-17.105-0.875-33.655-2.449-49.655-4.668-1.34 2.227-3.004 5.897-5.001 11.008-1.997 5.107-3.456 9.003-4.318 11.669-8.452 18.667-18.236 39.778-29.359 63.329 30.669 12.453 59.9 26.781 87.693 43.007 27.772 16.226 49.975 30.662 66.654 43.327 16.67 12.679 32.444 26.124 47.33 40.343 14.895 14.221 24.55 24.105 29.009 29.662 4.45 5.567 8.67 11.008 12.668 16.334l0.67 0.672c64.887-79.112 98.010-170.219 99.328-273.342l-6.673 1.331z" />
<glyph unicode="&#xe920;" glyph-name="becon" d="M292.141 461.033l206.869 206.868 206.867-206.868-206.867-206.87-206.869 206.87zM912.747 709.274v-248.241l-413.736 413.736h248.242l165.494-165.495zM912.747 212.79v248.242l-413.736-413.739h248.242l165.494 165.497zM85.273 212.79v248.242l413.738-413.739h-248.243l-165.495 165.497zM85.273 709.274v-248.241l413.738 413.736h-248.243l-165.495-165.495z" />
<glyph unicode="&#xe921;" glyph-name="bell" d="M807.551 312.841c-2.586 3.116-5.125 6.231-7.617 9.238-34.267 41.448-54.999 66.464-54.999 183.8 0 60.748-14.533 110.592-43.178 147.974-21.121 27.617-49.673 48.567-87.305 64.050-0.485 0.27-0.916 0.623-1.277 1.044-13.536 45.326-50.577 75.685-92.352 75.685s-78.801-30.359-92.337-75.639c-0.361-0.406-0.787-0.748-1.262-1.012-87.82-36.152-130.499-105.514-130.499-212.056 0-117.382-20.7-142.399-54.999-183.8-2.492-3.007-5.032-6.060-7.617-9.236-6.679-8.055-10.911-17.855-12.195-28.239s0.435-20.92 4.951-30.359c9.612-20.25 30.094-32.819 53.475-32.819h481.137c23.272 0 43.613 12.554 53.256 32.71 4.536 9.441 6.271 19.985 4.998 30.381-1.272 10.397-5.5 20.211-12.179 28.279zM520.801 96.8c22.509 0.018 44.593 6.129 63.909 17.682 19.318 11.553 35.148 28.119 45.811 47.941 0.502 0.95 0.75 2.013 0.721 3.087-0.031 1.075-0.338 2.122-0.893 3.043-0.554 0.92-1.338 1.682-2.275 2.209-0.936 0.529-1.992 0.805-3.067 0.804h-208.38c-1.075 0.004-2.134-0.271-3.072-0.797s-1.724-1.288-2.281-2.208c-0.557-0.922-0.865-1.97-0.897-3.046s0.218-2.14 0.721-3.091c10.662-19.82 26.49-36.384 45.804-47.937s41.395-17.665 63.9-17.686z" />
<glyph unicode="&#xe922;" glyph-name="box-arrow-down" horiz-adv-x="960" d="M850.24 652.888l-60 120c-3.738 7.47-9.485 13.753-16.589 18.144-7.11 4.391-15.296 6.717-23.648 6.718h-540.003c-8.354-0.001-16.542-2.327-23.649-6.718s-12.851-10.674-16.589-18.144l-60-120c-3.13-6.252-4.761-13.146-4.763-20.138v-509.998c0.001-19.891 7.902-38.97 21.967-53.037 14.065-14.061 33.142-21.965 53.033-21.965h600c19.891 0 38.97 7.904 53.030 21.965 14.067 14.067 21.971 33.146 21.971 53.037v509.998c-0.006 6.991-1.632 13.886-4.762 20.138zM722.176 707.75l22.496-45h-529.347l22.5 45h484.351zM195 137.747v435.003h569.998v-435.003h-569.998zM631.837 379.588c4.195-4.181 7.524-9.149 9.795-14.618 2.272-5.47 3.443-11.334 3.443-17.257s-1.171-11.787-3.443-17.257c-2.271-5.47-5.599-10.438-9.795-14.616l-120-120c-4.18-4.198-9.148-7.526-14.618-9.798s-11.334-3.437-17.257-3.437c-5.923 0-11.787 1.165-17.256 3.437s-10.438 5.6-14.618 9.798l-120 120c-8.454 8.451-13.203 19.917-13.203 31.873s4.749 23.421 13.203 31.875c8.454 8.454 19.919 13.203 31.875 13.203s23.421-4.749 31.875-13.203l43.163-43.088v146.25c0 11.935 4.74 23.38 13.18 31.82s19.885 13.18 31.82 13.18c11.935 0 23.38-4.741 31.82-13.18s13.18-19.885 13.18-31.82v-146.25l43.163 43.2c4.187 4.177 9.155 7.487 14.622 9.742s11.325 3.41 17.238 3.4c5.914-0.010 11.768-1.187 17.226-3.46s10.417-5.603 14.588-9.793z" />
<glyph unicode="&#xe923;" glyph-name="box-transition" d="M832 784h-640c-29.704 0-58.192-11.801-79.196-32.804s-32.803-49.492-32.803-79.196v-447.997c0-29.71 11.8-58.197 32.803-79.196 21.004-21.006 49.492-32.809 79.196-32.809h640c14.711 0 29.273 2.901 42.858 8.527 13.592 5.632 25.941 13.879 36.338 24.282 10.397 10.397 18.65 22.746 24.276 36.332 5.632 13.592 8.527 28.153 8.527 42.865v447.997c0 14.708-2.895 29.272-8.527 42.861-5.625 13.588-13.879 25.935-24.276 36.336s-22.746 18.65-36.338 24.278c-13.585 5.629-28.146 8.526-42.858 8.526zM192 688h640c4.246 0 8.315-1.686 11.312-4.686 3.004-3.001 4.69-7.070 4.69-11.314v-64h-208.002c-12.73 0-24.939-5.057-33.941-14.059s-14.059-21.21-14.059-33.942c0-21.217-8.429-41.566-23.432-56.568s-35.351-23.431-56.568-23.431c-21.217 0-41.566 8.429-56.568 23.431s-23.432 35.351-23.432 56.568c0 12.731-5.057 24.94-14.059 33.942s-21.21 14.059-33.941 14.059h-208v64c0 4.243 1.686 8.313 4.687 11.314s7.070 4.686 11.314 4.686zM832 208.002h-640c-4.243 0-8.313 1.686-11.314 4.683-3 3.004-4.687 7.072-4.687 11.319v287.997h166.64c10.429-36.883 32.613-69.353 63.181-92.477s67.85-35.636 106.179-35.636c38.329 0 75.61 12.513 106.179 35.636s52.752 55.594 63.181 92.477h166.642v-287.997c0-4.246-1.686-8.315-4.69-11.319-2.997-2.997-7.066-4.683-11.312-4.683z" />
<glyph unicode="&#xe924;" glyph-name="calculator" d="M800.003 880h-576.003c-21.217 0-41.566-8.428-56.568-23.431s-23.431-35.351-23.431-56.568v-703.997c0-21.224 8.428-41.568 23.431-56.573s35.351-23.429 56.568-23.429h576.003c21.217 0 41.561 8.424 56.566 23.429s23.429 35.348 23.429 56.573v703.997c0 21.217-8.424 41.566-23.429 56.568s-35.348 23.431-56.566 23.431zM784.002 111.998h-544.002v672.002h544.002v-672.002zM320 656c0 12.73 5.057 24.939 14.059 33.941s21.21 14.059 33.941 14.059h288.001c12.73 0 24.939-5.057 33.944-14.059 8.998-9.002 14.056-21.21 14.056-33.941s-5.059-24.94-14.056-33.942c-9.004-9.002-21.213-14.059-33.944-14.059h-288.001c-12.73 0-24.939 5.057-33.941 14.059s-14.059 21.21-14.059 33.942zM480 448c0-12.658-3.753-25.032-10.786-35.557s-17.028-18.728-28.722-23.572c-11.695-4.844-24.563-6.111-36.978-3.642s-23.818 8.565-32.769 17.516c-8.95 8.95-15.046 20.354-17.516 32.769s-1.201 25.283 3.642 36.978c4.844 11.694 13.047 21.69 23.572 28.722s22.899 10.786 35.557 10.786c16.974 0 33.253-6.743 45.255-18.745s18.745-28.281 18.745-45.255zM672 448c0-12.658-3.753-25.032-10.786-35.557s-17.028-18.728-28.722-23.572c-11.695-4.844-24.563-6.111-36.978-3.642s-23.818 8.565-32.769 17.516c-8.95 8.95-15.046 20.354-17.516 32.769s-1.201 25.283 3.642 36.978c4.844 11.694 13.047 21.69 23.572 28.722s22.899 10.786 35.557 10.786c16.974 0 33.253-6.743 45.255-18.745s18.745-28.281 18.745-45.255zM480 256c0-12.657-3.753-25.033-10.786-35.553-7.032-10.527-17.028-18.732-28.722-23.572-11.695-4.847-24.563-6.117-36.978-3.645s-23.818 8.567-32.769 17.517c-8.95 8.95-15.046 20.35-17.516 32.768s-1.201 25.286 3.642 36.978c4.844 11.694 13.047 21.69 23.572 28.722s22.899 10.786 35.557 10.786c16.974 0 33.253-6.743 45.255-18.745s18.745-28.284 18.745-45.255zM672 256c0-12.657-3.753-25.033-10.786-35.553-7.032-10.527-17.028-18.732-28.722-23.572-11.695-4.847-24.563-6.117-36.978-3.645s-23.818 8.567-32.769 17.517c-8.95 8.95-15.046 20.35-17.516 32.768s-1.201 25.286 3.642 36.978c4.844 11.694 13.047 21.69 23.572 28.722s22.899 10.786 35.557 10.786c16.974 0 33.253-6.743 45.255-18.745s18.745-28.284 18.745-45.255z" />
<glyph unicode="&#xe925;" glyph-name="card-shop" d="M356.282 112.404c31.764 0 57.513 25.75 57.513 57.517 0 31.762-25.749 57.512-57.513 57.512s-57.513-25.75-57.513-57.512c0-31.768 25.749-57.517 57.513-57.517zM758.859 112.404c31.764 0 57.513 25.75 57.513 57.517 0 31.762-25.749 57.512-57.513 57.512s-57.513-25.75-57.513-57.512c0-31.768 25.749-57.517 57.513-57.517zM860.94 700.497c-4.041 4.941-9.129 8.921-14.895 11.651-5.774 2.729-12.075 4.14-18.464 4.129h-546.996l-11.017 62.509c-1.174 6.658-4.658 12.69-9.838 17.035s-11.726 6.727-18.486 6.725h-115.026c-7.626 0-14.941-3.029-20.333-8.423s-8.422-12.707-8.422-20.333c0-7.626 3.030-14.941 8.422-20.334s12.707-8.422 20.333-8.422h90.906l82.063-465.098c1.175-6.658 4.658-12.69 9.838-17.035s11.726-6.726 18.487-6.725h460.101c7.626 0 14.941 3.030 20.334 8.423s8.422 12.707 8.422 20.333c0 7.627-3.029 14.941-8.422 20.334s-12.708 8.422-20.334 8.422h-435.981l-10.137 57.513h434.328c9.973 0.013 19.635 3.471 27.351 9.789s13.013 15.107 14.993 24.881l51.761 258.807c1.245 6.264 1.087 12.726-0.465 18.92s-4.466 11.967-8.523 16.9v0z" />
<glyph unicode="&#xe926;" glyph-name="clock" d="M512 784c-75.948 0-150.19-22.521-213.339-64.716s-112.367-102.167-141.43-172.334c-29.064-70.167-36.669-147.377-21.852-221.865s51.389-142.909 105.092-196.612c53.704-53.709 122.126-90.278 196.614-105.094s151.699-7.213 221.865 21.85c70.17 29.062 130.138 78.285 172.333 141.434s64.717 137.389 64.717 213.338c-0.115 101.807-40.608 199.412-112.602 271.4-71.987 71.989-169.591 112.483-271.398 112.6zM512 112c-56.961 0-112.643 16.89-160.004 48.538s-84.275 76.627-106.074 129.248c-21.798 52.627-27.501 110.534-16.388 166.401s38.542 107.183 78.819 147.46c40.278 40.278 91.594 67.707 147.461 78.819s113.773 5.409 166.399-16.388c52.622-21.798 97.601-58.712 129.249-106.073s48.538-103.043 48.538-160.004c-0.083-76.356-30.458-149.562-84.448-203.552s-127.196-84.365-203.552-84.448zM657.958 561.96c4.474-4.459 8.026-9.758 10.451-15.592 2.419-5.834 3.667-12.090 3.667-18.408s-1.248-12.573-3.667-18.407c-2.426-5.834-5.978-11.133-10.451-15.593l-111.998-111.999c-9.018-9.018-21.247-14.084-34-14.084s-24.983 5.066-34 14.084c-9.018 9.017-14.083 21.247-14.083 34s5.066 24.982 14.083 33.999l112 112c4.46 4.475 9.758 8.026 15.592 10.449s12.090 3.67 18.408 3.67c6.317 0 12.573-1.247 18.408-3.67 5.837-2.423 11.136-5.974 15.59-10.449zM368 896c0 12.73 5.057 24.939 14.059 33.941s21.211 14.059 33.941 14.059h192c12.731 0 24.94-5.057 33.939-14.059 9.005-9.002 14.061-21.211 14.061-33.941s-5.056-24.94-14.061-33.941c-9-9.002-21.208-14.059-33.939-14.059h-192c-12.73 0-24.94 5.057-33.941 14.059s-14.059 21.211-14.059 33.941z" />
<glyph unicode="&#xe927;" glyph-name="cole" d="M886.742 652.555c-2.020 3.878-4.938 7.231-8.517 9.784s-7.72 4.236-12.083 4.911c-4.362 0.675-8.826 0.323-13.024-1.027-4.2-1.351-8.017-3.661-11.14-6.745l-107.688-106.404c-5.286-5.144-12.41-8.027-19.831-8.027-7.423 0-14.546 2.883-19.833 8.027l-46.552 46.037c-2.606 2.571-4.672 5.625-6.081 8.985s-2.136 6.961-2.136 10.598c0 3.636 0.726 7.239 2.136 10.598s3.476 6.413 6.081 8.984l107.232 105.902c3.214 3.174 5.599 7.071 6.95 11.357 1.351 4.287 1.625 8.833 0.8 13.247-0.824 4.413-2.723 8.564-5.532 12.092s-6.447 6.331-10.596 8.164c-80.994 35.756-182.091 17.099-245.839-45.379-54.159-53.098-70.302-136.068-44.257-227.64 1.405-4.883 1.413-10.055 0.024-14.942s-4.121-9.3-7.893-12.749l-291.797-263.153c-11.368-10.078-20.536-22.338-26.947-36.030s-9.931-28.531-10.344-43.61c-0.412-15.080 2.291-30.084 7.945-44.099 5.654-14.014 14.139-26.743 24.939-37.412 10.801-10.669 23.689-19.054 37.879-24.643 14.189-5.589 29.384-8.264 44.656-7.863s30.301 3.868 44.171 10.193 26.288 15.373 36.5 26.593l269.361 288.768c3.443 3.676 7.836 6.356 12.707 7.749s10.034 1.45 14.933 0.159c26.403-7.143 53.637-10.849 81.012-11.024 58.541 0 109.914 18.708 146.967 54.759 68.621 66.753 79.084 179.976 45.799 243.839zM238.124 87.255c-11.544-1.244-23.194 1.081-33.343 6.653s-18.295 14.118-23.316 24.455c-5.021 10.339-6.669 21.963-4.715 33.265s7.411 21.728 15.621 29.837c8.21 8.109 18.767 13.502 30.211 15.435 11.446 1.933 23.217 0.311 33.69-4.643s19.129-12.997 24.776-23.016c5.647-10.018 8.004-21.521 6.748-32.92-1.381-12.542-7.059-24.241-16.092-33.164s-20.879-14.533-33.58-15.902z" />
<glyph unicode="&#xe928;" glyph-name="chart" d="M246.015 11.247h-56.088c-11.157 0-21.857 4.376-29.745 12.165-7.889 7.79-12.321 18.355-12.321 29.372v249.221c0 11.016 4.432 21.581 12.321 29.371 7.888 7.79 18.588 12.166 29.745 12.166h56.088c11.156 0 21.856-4.376 29.745-12.166 7.888-7.789 12.32-18.355 12.32-29.371v-249.221c0-11.017-4.432-21.581-12.32-29.372-7.889-7.789-18.589-12.165-29.745-12.165zM638.626 11.294h-56.088c-11.156 0-21.856 4.376-29.745 12.166-7.888 7.789-12.321 18.355-12.321 29.371v415.369c0 11.016 4.433 21.581 12.321 29.372 7.889 7.789 18.589 12.165 29.745 12.165h56.088c11.157 0 21.856-4.376 29.745-12.165s12.321-18.356 12.321-29.372v-415.369c0-11.016-4.432-21.581-12.321-29.371s-18.588-12.166-29.745-12.166zM834.931 11.274h-56.088c-11.156 0-21.856 4.376-29.745 12.166-7.888 7.789-12.32 18.355-12.32 29.371v609.207c0 11.017 4.432 21.581 12.32 29.372 7.889 7.789 18.589 12.165 29.745 12.165h56.088c11.157 0 21.857-4.376 29.745-12.165 7.889-7.79 12.321-18.355 12.321-29.372v-609.207c0-11.016-4.432-21.581-12.321-29.371s-18.588-12.166-29.745-12.166zM442.32 11.283h-56.088c-11.156 0-21.856 4.376-29.745 12.165s-12.321 18.356-12.321 29.372v747.663c0 11.017 4.432 21.581 12.321 29.372 7.889 7.789 18.589 12.165 29.745 12.165h56.088c11.156 0 21.856-4.376 29.745-12.165 7.888-7.79 12.321-18.355 12.321-29.372v-747.663c0-11.016-4.433-21.581-12.321-29.372-7.889-7.789-18.589-12.165-29.745-12.165z" />
<glyph unicode="&#xe929;" glyph-name="chart-right" d="M896 592h-144.002v144c0 12.73-5.059 24.939-14.056 33.941-9.004 9.002-21.21 14.060-33.942 14.060h-464v16c0 12.73-5.057 24.939-14.059 33.941s-21.21 14.060-33.941 14.060c-12.73 0-24.939-5.057-33.941-14.060s-14.059-21.21-14.059-33.941v-703.997c0-12.732 5.057-24.945 14.059-33.942 9.002-9.004 21.21-14.063 33.941-14.063s24.939 5.059 33.941 14.063c9.002 8.998 14.059 21.21 14.059 33.942v15.995h336c12.73 0 24.939 5.059 33.941 14.063 9.002 8.998 14.059 21.21 14.059 33.935v144.003h272c12.732 0 24.938 5.057 33.942 14.060 8.998 9.002 14.056 21.21 14.056 33.941v192c0 12.73-5.059 24.939-14.056 33.941-9.004 9.002-21.21 14.060-33.942 14.060zM656 688v-95.999h-416.001v95.999h416.001zM528 208.002h-288.001v95.998h288.001v-95.998zM848.002 400h-608.002v95.999h608.002v-95.999z" />
<glyph unicode="&#xe92a;" glyph-name="check" d="M1006.572 722.205l-629.965-632.237c-5.487-5.53-12.006-9.912-19.185-12.902s-14.875-4.533-22.649-4.533c-7.773 0-15.469 1.543-22.648 4.533s-13.698 7.373-19.186 12.902l-275.61 276.603c-5.494 5.513-9.852 12.059-12.825 19.262s-4.503 14.925-4.503 22.722c0 7.797 1.53 15.518 4.503 22.722s7.331 13.75 12.825 19.263c5.494 5.514 12.016 9.887 19.193 12.871s14.871 4.52 22.64 4.52c7.769 0 15.462-1.536 22.64-4.52s13.7-7.357 19.194-12.871l233.826-234.669 588.185 590.205c11.093 11.135 26.139 17.391 41.834 17.391 15.688 0 30.734-6.256 41.834-17.391 11.093-11.135 17.326-26.237 17.326-41.985s-6.233-30.849-17.326-41.984l-0.102 0.098z" />
<glyph unicode="&#xe92b;" glyph-name="chervo-right" d="M784.669 400.707l-449.849-445.119c-12.676-12.544-29.869-19.588-47.797-19.588s-35.12 7.044-47.796 19.588c-12.676 12.544-19.798 29.557-19.798 47.294s7.122 34.75 19.798 47.294l402.109 397.768-401.997 397.879c-6.277 6.211-11.256 13.583-14.653 21.699s-5.145 16.812-5.145 25.595c0 8.783 1.748 17.48 5.145 25.595s8.376 15.488 14.653 21.698c6.277 6.211 13.728 11.137 21.929 14.499s16.991 5.091 25.867 5.091c8.877 0 17.666-1.73 25.867-5.091s15.653-8.288 21.93-14.499l449.849-445.117c6.283-6.21 11.265-13.586 14.661-21.706s5.139-16.823 5.129-25.611c-0.010-8.787-1.774-17.486-5.189-25.598s-8.415-15.477-14.713-21.672z" />
<glyph unicode="&#xe92c;" glyph-name="default" d="M119.806 214.711c0-25.705 10.341-50.357 28.748-68.533 18.407-18.175 43.373-28.386 69.404-28.386h588.921c26.032 0 50.997 10.212 69.404 28.386 18.408 18.176 28.749 42.828 28.749 68.533v266.528h-785.227v-266.528zM235.486 346.245c0 13.769 5.54 26.977 15.401 36.714s23.236 15.206 37.181 15.206h84.132c13.946 0 27.32-5.469 37.181-15.206s15.401-22.944 15.401-36.714v-34.615c0-13.771-5.54-26.977-15.401-36.714s-23.236-15.208-37.181-15.208h-84.132c-13.946 0-27.32 5.47-37.181 15.208s-15.401 22.943-15.401 36.714v34.615zM806.879 727.021h-588.921c-26.031 0-50.997-10.21-69.404-28.386s-28.748-42.828-28.748-68.533v-44.998h785.227v44.998c0 25.705-10.341 50.357-28.749 68.533s-43.372 28.386-69.404 28.386v0z" />
<glyph unicode="&#xe92d;" glyph-name="document" d="M563.198 514.502h251.617c1.779 0 3.486-0.707 4.745-1.965s1.965-2.965 1.965-4.744v-337.888c0-30.381-12.068-59.51-33.55-80.998-21.481-21.48-50.616-33.548-80.996-33.548h-402.589c-30.379 0-59.514 12.067-80.996 33.548-21.481 21.488-33.549 50.617-33.549 80.998v575.127c0 30.38 12.068 59.515 33.549 80.996s50.617 33.55 80.996 33.55h165.349c1.779 0 3.486-0.707 4.744-1.965s1.965-2.965 1.965-4.745v-251.617c0-23.007 9.14-45.072 25.408-61.341s38.334-25.408 61.341-25.408zM361.903 226.94h287.564c7.753 0 15.19 3.080 20.672 8.563s8.563 12.919 8.563 20.673c0 7.753-3.080 15.19-8.563 20.672s-12.919 8.563-20.672 8.563h-287.564c-7.753 0-15.19-3.080-20.672-8.563s-8.563-12.919-8.563-20.672c0-7.754 3.080-15.191 8.563-20.673s12.919-8.563 20.672-8.563zM361.903 370.721h287.564c7.753 0 15.19 3.081 20.672 8.563s8.563 12.919 8.563 20.673c0 7.753-3.080 15.19-8.563 20.672s-12.919 8.563-20.672 8.563h-287.564c-7.753 0-15.19-3.080-20.672-8.563s-8.563-12.919-8.563-20.672c0-7.754 3.080-15.19 8.563-20.673s12.919-8.563 20.672-8.563zM540.233 836.702v0zM540.233 836.702c0 0-0.001 0-0.001 0M540.233 836.702h-0.001M540.232 836.702c-0.436 0.433-0.989 0.727-1.591 0.847s-1.227 0.057-1.795-0.178c-0.567-0.234-1.053-0.632-1.396-1.141s-0.526-1.109-0.529-1.723v-233.303c0-7.5 2.979-14.692 8.282-19.996s12.495-8.282 19.995-8.282h233.302c0.614 0.002 1.214 0.187 1.723 0.529s0.907 0.828 1.142 1.396c0.235 0.567 0.296 1.192 0.177 1.794s-0.414 1.156-0.846 1.591l-258.465 258.465z" />
<glyph unicode="&#xe92e;" glyph-name="document-2" d="M813.898 486.955h-245.383c-22.314 0-43.712 8.752-59.49 24.331s-24.642 36.709-24.642 58.742v242.298c0 1.836-0.738 3.598-2.054 4.896-1.314 1.298-3.098 2.028-4.957 2.028h-161.252c-29.752 0-58.284-11.67-79.32-32.443-21.038-20.772-32.856-48.946-32.856-78.322v-553.826c0-29.376 11.818-57.55 32.856-78.322 21.036-20.772 49.568-32.443 79.32-32.443h392.613c29.751 0 58.283 11.67 79.32 32.443s32.856 48.946 32.856 78.322v325.373c0 1.836-0.74 3.598-2.054 4.896-1.315 1.298-3.098 2.028-4.957 2.028zM798.511 548.192l-252.062 248.892c-0.489 0.481-1.113 0.808-1.791 0.941s-1.381 0.064-2.020-0.197c-0.638-0.262-1.186-0.703-1.57-1.269-0.386-0.567-0.593-1.233-0.596-1.916v-224.662c0-7.344 2.955-14.388 8.215-19.581s12.392-8.11 19.829-8.11h227.524c0.691 0.002 1.365 0.207 1.94 0.587 0.573 0.381 1.021 0.92 1.285 1.551s0.333 1.324 0.199 1.995c-0.134 0.669-0.465 1.285-0.952 1.769z" />
<glyph unicode="&#xe92f;" glyph-name="check-2" d="M941.869 638.214c44.433-44.433 44.433-116.473 0-160.906l-402.265-402.265c-44.433-44.433-116.473-44.433-160.906 0s-44.433 116.473 0 160.906l402.265 402.265c44.433 44.433 116.473 44.433 160.906 0zM539.603 74.991c-44.433-44.433-116.473-44.433-160.906 0l-241.359 241.359c-44.433 44.433-44.433 116.473 0 160.906s116.473 44.433 160.906 0l241.359-241.359c44.433-44.433 44.433-116.473 0-160.906z" />
</font>
</defs>
</svg>
